<?xml version="1.0" encoding="UTF-8"?>
<svg id="Layer_2" data-name="Layer 2" xmlns="http://www.w3.org/2000/svg" xmlns:xlink="http://www.w3.org/1999/xlink" viewBox="0 0 785.87 470.71">
  <defs>
    <style>
      .cls-1 {
        fill: #94a289;
      }

      .cls-2 {
        fill: url(#linear-gradient-3);
      }

      .cls-3 {
        fill: url(#linear-gradient-2);
      }

      .cls-4 {
        fill: url(#radial-gradient);
      }

      .cls-5 {
        fill: url(#linear-gradient);
      }
    </style>
    <linearGradient id="linear-gradient" x1="-2292.71" y1="-2926.62" x2="-2162.27" y2="-2926.62" gradientTransform="translate(4260.88 735.5) rotate(-45)" gradientUnits="userSpaceOnUse">
      <stop offset=".11" stop-color="#c6b49d"/>
      <stop offset=".54" stop-color="#ad9a84"/>
      <stop offset="1" stop-color="#96836e"/>
    </linearGradient>
    <linearGradient id="linear-gradient-2" x1="-2289.84" y1="-2806.08" x2="-2164.5" y2="-2806.08" xlink:href="#linear-gradient"/>
    <radialGradient id="radial-gradient" cx="-2227.2" cy="-2929.26" fx="-2227.2" fy="-2929.26" r="211.9" gradientTransform="translate(4260.88 735.5) rotate(-45)" gradientUnits="userSpaceOnUse">
      <stop offset="0" stop-color="#849573"/>
      <stop offset=".99" stop-color="#b4c09b"/>
    </radialGradient>
    <linearGradient id="linear-gradient-3" x1="-2287.85" y1="-2897.23" x2="-2164.89" y2="-2897.23" xlink:href="#linear-gradient"/>
  </defs>
  <g id="Layer_2-2" data-name="Layer 2">
    <g>
      <g>
        <path class="cls-5" d="M656.42,192.58c-11.93-.81-34.32,12.26-55.33,33.27s-34.09,43.4-33.27,55.33c.17,2.53.96,4.59,2.44,6.07,8.44,8.44,35.93-5.36,61.4-30.83,25.47-25.47,39.27-52.96,30.83-61.4-1.48-1.48-3.54-2.27-6.07-2.44ZM627.07,251.37c-21.33,21.33-43.66,33.58-49.88,27.36-1.09-1.09-1.61-2.67-1.62-4.66-.04-9.35,11.38-27.63,28.97-45.23,17.59-17.59,35.87-29.01,45.23-28.97,1.98,0,3.57.53,4.66,1.62,6.22,6.22-6.03,28.56-27.36,49.88Z"/>
        <path class="cls-3" d="M758.08,382.46c-6,6.42-32.17,33.27-56.36,26.69-13.26-3.61-22.36-16.99-40.55-43.77-10.61-15.61-12.53-21.8-22.85-33.79-9.88-11.49-19.89-19.52-27.36-24.77-.93-.65-.81-2.06.21-2.55,10.56-5.01,25.55-13.69,40.22-28.32,14.79-14.75,23.55-29.87,28.58-40.48.49-1.03,1.89-1.14,2.55-.21,5.25,7.47,13.28,17.48,24.77,27.36,12,10.32,18.18,12.24,33.79,22.85,26.78,18.19,40.16,27.29,43.77,40.55,6.57,24.19-20.28,50.36-26.69,56.36"/>
        <path class="cls-4" d="M600.47,22.99c-14.83-14.83-34.46-22.99-55.29-22.99s-40.46,8.17-55.29,22.99-22.99,34.46-22.99,55.29v12.97h-12.97c-20.83,0-40.47,8.17-55.29,22.99-14.83,14.83-22.99,34.46-22.99,55.29,0,20.83,8.17,40.46,22.99,55.29,14.83,14.83,34.46,22.99,55.29,22.99h121.62c4.59.06,8.97.06,13.09,0h30.73c1.09,0,2.13-.43,2.9-1.2s1.2-1.81,1.2-2.9v-26.17c.15-6.63.19-14.06,0-22.02v-117.26c0-20.83-8.17-40.47-22.99-55.29ZM475.56,105.92l131.73,131.16c-11.37-1.6-29.86-5.16-49.55-12.89-17.15-6.74-31.94-15.39-43.97-25.7-14.77-12.66-25.44-27.94-31.72-45.42-5.2-14.46-7.36-30.28-6.5-47.14ZM481.24,100.02c17.02-.93,32.98,1.24,47.55,6.48,17.47,6.28,32.75,16.95,45.42,31.72,10.31,12.03,18.96,26.82,25.7,43.97,7.55,19.2,11.12,37.27,12.77,48.7l-131.44-130.86ZM474.35,155.84c6.77,18.83,18.24,35.27,34.1,48.87,12.72,10.91,28.3,20.03,46.3,27.11,8.33,3.27,16.47,5.83,23.99,7.82h-.59c-39.53-.35-96.32-5.82-126.56-31.74-12.46-10.67-19.37-24.12-20.54-39.98-2.1-26.43,16.34-49.28,36.38-63.51-1.08,18.36,1.24,35.63,6.92,51.44ZM615.27,202.87c-1.98-7.43-4.51-15.46-7.74-23.69-7.08-18-16.19-33.58-27.11-46.3-13.6-15.86-30.04-27.33-48.87-34.1-15.8-5.68-33.07-8-51.44-6.92,14.23-20.04,37.09-38.48,63.53-36.38,15.84,1.17,29.28,8.08,39.96,20.53,24.73,28.86,30.85,81.9,31.66,121.04v5.81ZM404.43,219.04c-13.28-13.28-20.59-30.86-20.59-49.5,0-18.64,7.31-36.22,20.59-49.5,13.28-13.28,30.86-20.59,49.5-20.59h6.36c-9.73,7.23-18.03,15.66-24.34,24.78-9.73,14.07-14.25,29.4-13.07,44.31,1.33,18.1,9.2,33.43,23.37,45.58,13.2,11.31,31.78,19.84,55.47,25.51h-47.79c-18.64,0-36.22-7.31-49.5-20.59ZM615.27,125.82c-5.67-23.52-14.18-41.99-25.43-55.13-12.15-14.18-27.48-22.04-45.55-23.37-14.93-1.19-30.26,3.33-44.33,13.07-9.15,6.33-17.61,14.67-24.86,24.45v-6.55c0-18.64,7.31-36.22,20.59-49.5,13.28-13.28,30.86-20.59,49.5-20.59s36.22,7.31,49.5,20.59c13.28,13.28,20.59,30.86,20.59,49.5v47.53Z"/>
        <path class="cls-2" d="M587.55,297.64c2.84,1.87,5.69,3.74,8.53,5.61.38.25.85.29,1.26.12,12.26-5.13,32.01-15.26,50.83-34.48,17.61-17.99,27.14-36.52,32.16-48.49.18-.43.12-.92-.15-1.3-2.21-3.1-4.43-6.2-6.65-9.3-.62-.87-1.96-.71-2.35.28-4.96,12.45-14.47,31.58-32.34,50.12-18.71,19.4-38.48,29.74-51.07,35.07-1,.42-1.12,1.78-.22,2.37Z"/>
      </g>
      <g>
        <path class="cls-1" d="M23.41,296.32c4.78,0,8.61.85,11.48,2.56,2.88,1.71,4.85,4.37,5.93,7.97,2.24-3.9,5.24-6.92,9-9.07,3.75-2.14,7.92-3.22,12.51-3.22s8.34,1,11.56,3c3.22,2,5.61,4.9,7.17,8.71,2.05-3.71,4.95-6.58,8.7-8.63,3.75-2.05,7.97-3.07,12.65-3.07,6.83,0,12.02,2.05,15.58,6.14,3.56,4.1,5.34,10.09,5.34,18v47.25c0,1.66-.37,2.85-1.1,3.58-.73.73-2.03,1.1-3.88,1.1h-24.87c-1.85,0-3.15-.37-3.88-1.1s-1.1-1.92-1.1-3.58v-50.33c0-1.07-.24-1.95-.73-2.63-.49-.68-1.17-1.02-2.05-1.02-1.17,0-2,.39-2.49,1.17v52.81c0,1.66-.37,2.85-1.1,3.58-.73.73-2.03,1.1-3.88,1.1h-24.87c-1.85,0-3.15-.37-3.88-1.1s-1.1-1.92-1.1-3.58v-50.33c0-1.07-.24-1.95-.73-2.63-.49-.68-1.17-1.02-2.05-1.02-1.17,0-2,.39-2.49,1.17v52.81c0,1.66-.37,2.85-1.1,3.58s-2.03,1.1-3.88,1.1H13.31c-1.85,0-3.15-.37-3.88-1.1s-1.1-1.92-1.1-3.58v-51.64c0-3.41-.49-6.02-1.46-7.83-.98-1.8-2.78-3.49-5.41-5.05-.68-.39-1.1-.71-1.24-.95-.15-.24-.22-.56-.22-.95v-1.76c0-.97.59-1.46,1.76-1.46h21.65Z"/>
        <path class="cls-1" d="M194.73,372.4c-9.85,0-16.87-4.05-21.07-12.14-2.24,4.19-5,7.27-8.27,9.22-3.27,1.95-7.29,2.93-12.07,2.93-6.73,0-12.14-1.66-16.24-4.97-4.1-3.31-6.14-7.7-6.14-13.17,0-4.78,1.68-8.56,5.05-11.34,3.36-2.78,8.56-4.66,15.58-5.63,17.94-2.34,26.92-9.12,26.92-20.34,0-4.49-1.56-8.36-4.68-11.63-3.12-3.27-6.83-4.9-11.12-4.9-2.05,0-3.07.68-3.07,2.05,0,.49.15.98.44,1.46,4.1,0,7.46,1.22,10.09,3.66,2.63,2.44,3.95,5.56,3.95,9.36,0,4.49-1.88,8.19-5.63,11.12-3.76,2.93-8.56,4.39-14.41,4.39s-10.68-1.49-14.19-4.46c-3.51-2.97-5.27-6.9-5.27-11.78,0-6.53,3.17-11.78,9.51-15.73,6.34-3.95,14.73-5.93,25.16-5.93,12.48,0,21.97,3.02,28.46,9.07,6.49,6.05,9.73,14.92,9.73,26.63v18.29c0,1.66.15,2.78.44,3.36.29.59.78.88,1.46.88.88,0,1.51-.39,1.9-1.17.39-.78.73-2.29,1.02-4.54.19-1.66.39-2.66.59-3,.19-.34.59-.51,1.17-.51h2.49c.59,0,1,.34,1.24,1.02.24.68.37,1.81.37,3.36,0,7.8-2.03,13.83-6.07,18.07-4.05,4.24-9.83,6.36-17.34,6.36ZM171.17,340.8c-.59-.78-1.37-1.17-2.34-1.17-1.66,0-2.49.98-2.49,2.93v9.36c0,1.95.83,2.93,2.49,2.93.97,0,1.76-.39,2.34-1.17v-12.87Z"/>
        <path class="cls-1" d="M257.63,353.82c0,2.54-.88,4.66-2.63,6.36-1.76,1.71-4.15,2.66-7.17,2.85-.39.59-.59,1.12-.59,1.61,0,1.27.88,1.9,2.63,1.9,3.12,0,5.93-1.34,8.41-4.02,2.49-2.68,3.73-5.78,3.73-9.29,0-4-1.37-7.14-4.1-9.44-2.73-2.29-7.46-4.22-14.19-5.78-12.78-2.93-19.17-9.17-19.17-18.73,0-7.61,3.68-13.63,11.05-18.07,7.36-4.44,17.34-6.66,29.92-6.66,10.34,0,18.38,1.59,24.14,4.75,5.75,3.17,8.63,7.58,8.63,13.24,0,3.9-1.51,7-4.54,9.29-3.02,2.29-7.22,3.44-12.58,3.44s-9.56-1.12-12.87-3.36c-3.32-2.24-4.97-5.17-4.97-8.78,0-2.53.88-4.66,2.63-6.36,1.76-1.71,4.14-2.66,7.17-2.85.39-.59.59-1.12.59-1.61,0-1.27-.88-1.9-2.63-1.9-3.12,0-5.93,1.34-8.41,4.02-2.49,2.68-3.73,5.78-3.73,9.29,0,4,1.49,7.17,4.46,9.51,2.97,2.34,7.92,4.24,14.85,5.71,8.19,1.66,14.04,3.98,17.56,6.95,3.51,2.98,5.27,7.19,5.27,12.66,0,7.71-3.44,13.61-10.31,17.7-6.88,4.1-16.75,6.14-29.63,6.14-11.7,0-21.04-1.66-28.02-4.97-6.97-3.31-10.46-7.7-10.46-13.17,0-3.9,1.54-6.97,4.61-9.22,3.07-2.24,7.24-3.36,12.51-3.36s9.56,1.12,12.87,3.36c3.31,2.24,4.97,5.17,4.97,8.78Z"/>
        <path class="cls-1" d="M339.85,296.32c1.85,0,3.15.37,3.88,1.1.73.73,1.1,1.93,1.1,3.58v50.33c0,1.07.24,1.95.73,2.63.49.68,1.17,1.02,2.05,1.02,1.17,0,2-.39,2.49-1.17v-52.81c0-1.66.37-2.85,1.1-3.58s2.02-1.1,3.88-1.1h26.33c1.76,0,3.02.37,3.8,1.1.78.73,1.17,1.93,1.17,3.58v47.55c0,1.66.15,2.78.44,3.36.29.59.78.88,1.46.88.88,0,1.51-.39,1.9-1.17.39-.78.73-2.29,1.02-4.54.19-1.66.39-2.66.59-3,.19-.34.59-.51,1.17-.51h2.49c.59,0,1,.34,1.24,1.02.24.68.37,1.81.37,3.36,0,7.61-2.1,13.58-6.29,17.92-4.19,4.34-10,6.51-17.41,6.51-4.59,0-8.73-1.07-12.44-3.22-3.71-2.14-6.54-5.17-8.49-9.07-2.15,3.9-5.17,6.93-9.07,9.07-3.9,2.14-8.29,3.22-13.17,3.22-7.02,0-12.39-2.1-16.09-6.29-3.71-4.19-5.56-10.14-5.56-17.85v-33.94c0-3.41-.49-6.02-1.46-7.83-.98-1.8-2.78-3.49-5.41-5.05-.68-.39-1.1-.71-1.24-.95-.15-.24-.22-.56-.22-.95v-1.76c0-.97.59-1.46,1.76-1.46h37.89Z"/>
        <path class="cls-1" d="M403.64,283.45c0-3.41-.49-6.02-1.46-7.83-.98-1.8-2.78-3.49-5.41-5.05-.68-.39-1.1-.71-1.24-.95-.15-.24-.22-.56-.22-.95v-1.76c0-.97.59-1.46,1.76-1.46h37.89c1.85,0,3.15.37,3.88,1.1.73.73,1.1,1.93,1.1,3.58v39.5c2.54-4.78,6.07-8.49,10.61-11.12,4.54-2.63,9.63-3.95,15.29-3.95,7.51,0,13.68,2.12,18.51,6.36,4.83,4.24,7.24,9.58,7.24,16.02,0,5.46-1.85,9.9-5.56,13.31-3.71,3.42-8.49,5.12-14.34,5.12-8,0-13.66-3.12-16.97-9.36-1.66,0-2.49.88-2.49,2.63s.83,3.46,2.49,5.12c1.66,1.66,3.95,3.07,6.88,4.24s6,1.76,9.22,1.76c8.39,0,15.26-2.88,20.63-8.63.59-.59,1-.95,1.24-1.1.24-.15.61-.22,1.1-.22h1.76c.68,0,1.15.24,1.39.73.24.49.37,1.51.37,3.07,0,12.1-2.34,21.58-7.02,28.46-4.68,6.88-11.12,10.31-19.31,10.31s-14.92-3.15-19.6-9.44c-4.68-6.29-7.02-15.04-7.02-26.26,0-9.85,1.95-17.78,5.85-23.77,3.9-6,9.12-9,15.65-9,.39-.49.59-1.07.59-1.76s-.27-1.19-.8-1.54c-.54-.34-1.2-.51-1.98-.51-4.59,0-8.63,1.56-12.14,4.68-3.51,3.12-6.32,7.63-8.41,13.53-2.1,5.9-3.15,12.27-3.15,19.09v28.53c0,1.66-.39,2.85-1.17,3.58-.78.73-2.05,1.1-3.8,1.1h-26.33c-3.32,0-4.97-1.56-4.97-4.68v-82.51Z"/>
        <path class="cls-1" d="M564.13,372.4c-9.85,0-16.87-4.05-21.07-12.14-2.24,4.19-5,7.27-8.27,9.22-3.27,1.95-7.29,2.93-12.07,2.93-6.73,0-12.14-1.66-16.24-4.97-4.1-3.31-6.14-7.7-6.14-13.17,0-4.78,1.68-8.56,5.05-11.34,3.36-2.78,8.56-4.66,15.58-5.63,17.94-2.34,26.92-9.12,26.92-20.34,0-4.49-1.56-8.36-4.68-11.63-3.12-3.27-6.83-4.9-11.12-4.9-2.05,0-3.07.68-3.07,2.05,0,.49.15.98.44,1.46,4.1,0,7.46,1.22,10.09,3.66,2.63,2.44,3.95,5.56,3.95,9.36,0,4.49-1.88,8.19-5.63,11.12-3.76,2.93-8.56,4.39-14.41,4.39s-10.68-1.49-14.19-4.46c-3.51-2.97-5.27-6.9-5.27-11.78,0-6.53,3.17-11.78,9.51-15.73,6.34-3.95,14.73-5.93,25.16-5.93,12.48,0,21.97,3.02,28.46,9.07,6.49,6.05,9.73,14.92,9.73,26.63v18.29c0,1.66.15,2.78.44,3.36.29.59.78.88,1.46.88.88,0,1.51-.39,1.9-1.17.39-.78.73-2.29,1.02-4.54.19-1.66.39-2.66.59-3,.19-.34.59-.51,1.17-.51h2.49c.59,0,1,.34,1.24,1.02.24.68.37,1.81.37,3.36,0,7.8-2.03,13.83-6.07,18.07-4.05,4.24-9.83,6.36-17.34,6.36ZM540.58,340.8c-.59-.78-1.37-1.17-2.34-1.17-1.66,0-2.49.98-2.49,2.93v9.36c0,1.95.83,2.93,2.49,2.93.97,0,1.76-.39,2.34-1.17v-12.87Z"/>
      </g>
      <g>
        <path class="cls-1" d="M72.57,394.63c4.78,0,8.61.85,11.48,2.56,2.88,1.71,4.85,4.37,5.93,7.97,2.24-3.9,5.24-6.92,9-9.07,3.75-2.14,7.92-3.22,12.51-3.22s8.34,1,11.56,3c3.22,2,5.61,4.9,7.17,8.71,2.05-3.71,4.95-6.58,8.7-8.63,3.75-2.05,7.97-3.07,12.65-3.07,6.83,0,12.02,2.05,15.58,6.14,3.56,4.1,5.34,10.09,5.34,18v47.25c0,1.66-.37,2.85-1.1,3.58-.73.73-2.03,1.1-3.88,1.1h-24.87c-1.85,0-3.15-.37-3.88-1.1s-1.1-1.92-1.1-3.58v-50.33c0-1.07-.24-1.95-.73-2.63-.49-.68-1.17-1.02-2.05-1.02-1.17,0-2,.39-2.49,1.17v52.81c0,1.66-.37,2.85-1.1,3.58-.73.73-2.03,1.1-3.88,1.1h-24.87c-1.85,0-3.15-.37-3.88-1.1s-1.1-1.92-1.1-3.58v-50.33c0-1.07-.24-1.95-.73-2.63-.49-.68-1.17-1.02-2.05-1.02-1.17,0-2,.39-2.49,1.17v52.81c0,1.66-.37,2.85-1.1,3.58s-2.03,1.1-3.88,1.1h-24.87c-1.85,0-3.15-.37-3.88-1.1s-1.1-1.92-1.1-3.58v-51.64c0-3.41-.49-6.02-1.46-7.83-.98-1.8-2.78-3.49-5.41-5.05-.68-.39-1.1-.71-1.24-.95-.15-.24-.22-.56-.22-.95v-1.76c0-.97.59-1.46,1.76-1.46h21.65Z"/>
        <path class="cls-1" d="M243.88,470.71c-9.85,0-16.87-4.05-21.07-12.14-2.24,4.19-5,7.27-8.27,9.22-3.27,1.95-7.29,2.93-12.07,2.93-6.73,0-12.14-1.66-16.24-4.97-4.1-3.31-6.14-7.7-6.14-13.17,0-4.78,1.68-8.56,5.05-11.34,3.36-2.78,8.56-4.66,15.58-5.63,17.94-2.34,26.92-9.12,26.92-20.34,0-4.49-1.56-8.36-4.68-11.63-3.12-3.27-6.83-4.9-11.12-4.9-2.05,0-3.07.68-3.07,2.05,0,.49.15.98.44,1.46,4.1,0,7.46,1.22,10.09,3.66,2.63,2.44,3.95,5.56,3.95,9.36,0,4.49-1.88,8.19-5.63,11.12-3.76,2.93-8.56,4.39-14.41,4.39s-10.68-1.49-14.19-4.46c-3.51-2.97-5.27-6.9-5.27-11.78,0-6.53,3.17-11.78,9.51-15.73,6.34-3.95,14.73-5.93,25.16-5.93,12.48,0,21.97,3.02,28.46,9.07,6.49,6.05,9.73,14.92,9.73,26.63v18.29c0,1.66.15,2.78.44,3.36.29.59.78.88,1.46.88.88,0,1.51-.39,1.9-1.17.39-.78.73-2.29,1.02-4.54.19-1.66.39-2.66.59-3,.19-.34.59-.51,1.17-.51h2.49c.59,0,1,.34,1.24,1.02.24.68.37,1.81.37,3.36,0,7.8-2.03,13.83-6.07,18.07-4.05,4.24-9.83,6.36-17.34,6.36ZM220.33,439.11c-.59-.78-1.37-1.17-2.34-1.17-1.66,0-2.49.98-2.49,2.93v9.36c0,1.95.83,2.93,2.49,2.93.97,0,1.76-.39,2.34-1.17v-12.87Z"/>
        <path class="cls-1" d="M284.99,378.83c.39-1.85,1-3.1,1.83-3.73.83-.63,2.07-.95,3.73-.95h15.95c1.85,0,3.15.37,3.88,1.1.73.73,1.1,1.93,1.1,3.58v15.8h14.48c1.17,0,1.76.49,1.76,1.46v2.63c0,.98-.59,1.46-1.76,1.46h-14.48v45.94c0,1.95.27,3.27.8,3.95.53.68,1.54,1.02,3,1.02,1.17,0,2.02-.39,2.56-1.17.53-.78,1-2.29,1.39-4.54.19-1.56.41-2.54.66-2.93.24-.39.66-.59,1.24-.59h2.34c.59,0,1,.34,1.24,1.02.24.68.37,1.85.37,3.51,0,7.8-2.15,13.8-6.44,18-4.29,4.19-10.39,6.29-18.29,6.29s-14.56-2.24-19.09-6.73c-4.54-4.49-6.8-10.78-6.8-18.87v-44.91h-8.63c-1.17,0-1.76-.49-1.76-1.46v-2.63c0-.97.59-1.46,1.76-1.46h.59c4.58,0,7.95-.44,10.09-1.32,2.14-.88,3.83-2.39,5.05-4.54,1.22-2.14,2.36-5.46,3.44-9.95Z"/>
        <path class="cls-1" d="M358.87,415.41c0,4.1.97,7.85,2.93,11.27,1.95,3.42,4.7,6.17,8.27,8.27,3.56,2.1,7.58,3.15,12.07,3.15,4,0,7.53-.66,10.61-1.98s6.12-3.53,9.14-6.66c.59-.59,1-.95,1.24-1.1.24-.15.61-.22,1.1-.22h1.9c1.07,0,1.61.98,1.61,2.93,0,7.32-1.68,13.97-5.05,19.97-3.37,6-8.12,10.78-14.26,14.34-6.14,3.56-13.17,5.34-21.07,5.34s-14.29-1.59-20.34-4.75c-6.05-3.17-10.83-7.68-14.34-13.53-3.51-5.85-5.27-12.63-5.27-20.34s1.76-14.07,5.27-19.97c3.51-5.9,8.56-10.58,15.14-14.04,6.58-3.46,14.17-5.19,22.75-5.19,6.14,0,11.63.9,16.46,2.71,4.83,1.81,8.65,4.39,11.48,7.75,2.83,3.37,4.24,7.24,4.24,11.63,0,5.37-1.88,9.83-5.63,13.39-3.76,3.56-8.56,5.34-14.41,5.34-5.46,0-10.07-1.78-13.83-5.34-3.76-3.56-5.63-7.92-5.63-13.09,0-3.8,1.32-6.92,3.95-9.36,2.63-2.44,6-3.66,10.09-3.66.29-.49.44-.97.44-1.46,0-1.36-1.02-2.05-3.07-2.05-4.29,0-8,1.63-11.12,4.9-3.12,3.27-4.68,7.19-4.68,11.78Z"/>
        <path class="cls-1" d="M414.91,381.76c0-3.41-.49-6.02-1.46-7.83-.98-1.8-2.78-3.49-5.41-5.05-.68-.39-1.1-.71-1.24-.95-.15-.24-.22-.56-.22-.95v-1.76c0-.97.59-1.46,1.76-1.46h37.89c1.85,0,3.15.37,3.88,1.1.73.73,1.1,1.93,1.1,3.58v33.36c4.78-5.95,11.41-8.92,19.9-8.92,7.02,0,12.39,2.1,16.09,6.29,3.71,4.19,5.56,10.15,5.56,17.85v47.25c0,1.66-.37,2.85-1.1,3.58-.73.73-2.03,1.1-3.88,1.1h-26.33c-1.85,0-3.15-.37-3.88-1.1-.73-.73-1.1-1.92-1.1-3.58v-50.33c0-1.07-.24-1.95-.73-2.63-.49-.68-1.17-1.02-2.05-1.02-1.17,0-2,.39-2.49,1.17v52.81c0,1.66-.37,2.85-1.1,3.58-.73.73-2.03,1.1-3.88,1.1h-26.33c-1.85,0-3.15-.37-3.88-1.1s-1.1-1.92-1.1-3.58v-82.51Z"/>
        <path class="cls-1" d="M564.13,470.71c-9.85,0-16.87-4.05-21.07-12.14-2.24,4.19-5,7.27-8.27,9.22-3.27,1.95-7.29,2.93-12.07,2.93-6.73,0-12.14-1.66-16.24-4.97-4.1-3.31-6.14-7.7-6.14-13.17,0-4.78,1.68-8.56,5.05-11.34,3.36-2.78,8.56-4.66,15.58-5.63,17.94-2.34,26.92-9.12,26.92-20.34,0-4.49-1.56-8.36-4.68-11.63-3.12-3.27-6.83-4.9-11.12-4.9-2.05,0-3.07.68-3.07,2.05,0,.49.15.98.44,1.46,4.1,0,7.46,1.22,10.09,3.66,2.63,2.44,3.95,5.56,3.95,9.36,0,4.49-1.88,8.19-5.63,11.12-3.76,2.93-8.56,4.39-14.41,4.39s-10.68-1.49-14.19-4.46c-3.51-2.97-5.27-6.9-5.27-11.78,0-6.53,3.17-11.78,9.51-15.73,6.34-3.95,14.73-5.93,25.16-5.93,12.48,0,21.97,3.02,28.46,9.07,6.49,6.05,9.73,14.92,9.73,26.63v18.29c0,1.66.15,2.78.44,3.36.29.59.78.88,1.46.88.88,0,1.51-.39,1.9-1.17.39-.78.73-2.29,1.02-4.54.19-1.66.39-2.66.59-3,.19-.34.59-.51,1.17-.51h2.49c.59,0,1,.34,1.24,1.02.24.68.37,1.81.37,3.36,0,7.8-2.03,13.83-6.07,18.07-4.05,4.24-9.83,6.36-17.34,6.36ZM540.58,439.11c-.59-.78-1.37-1.17-2.34-1.17-1.66,0-2.49.98-2.49,2.93v9.36c0,1.95.83,2.93,2.49,2.93.97,0,1.76-.39,2.34-1.17v-12.87Z"/>
      </g>
    </g>
  </g>
</svg>